<?xml version="1.0" encoding="utf-8"?>
<!-- Generator: Adobe Illustrator 17.1.0, SVG Export Plug-In . SVG Version: 6.00 Build 0)  -->
<svg version="1.2" baseProfile="tiny" id="Layer_1" xmlns="http://www.w3.org/2000/svg" xmlns:xlink="http://www.w3.org/1999/xlink"
	 x="0px" y="0px" viewBox="0 0 733 300" xml:space="preserve">
<g>
	<polygon fill="#FFFFFF" points="177,239 534.5,239 534.5,31 	"/>
	<polygon fill="#6774AA" points="510.5,214 510.5,240 512.5,240 512.5,216 536.5,216 536.5,214 	"/>
	<path fill="#6774AA" d="M215.2,238c0,0.7,0,1.3-0.1,2h2c0-0.7,0.1-1.3,0.1-2c0-6.9-2.1-13.3-5.7-18.6l-1.7,1
		C213.1,225.4,215.2,231.5,215.2,238z"/>
	<path fill="#6774AA" d="M536.5,64.9c-1,0-1.5,0.1-2.2,0.1c-12.3,0-23-7.2-28-17.5l-1.8,1c5.4,11,16.8,18.5,29.8,18.5
		c0.7,0,1.1,0,2.1-0.1V64.9z"/>
	<text transform="matrix(1 0 0 1 349.1631 119)" font-family="'Helvetica'" font-size="24">c</text>
	<text transform="matrix(1 0 0 1 543.4893 144.9995)" font-family="'Helvetica'" font-size="24">a</text>
	<text transform="matrix(1 0 0 1 359.4895 268)" font-family="'Helvetica'" font-size="24">b</text>
	<text transform="matrix(1 0 0 1 229.833 230)" font-family="'Helvetica'" font-size="24">α</text>
	<text transform="matrix(1 0 0 1 502.833 89)" font-family="'Helvetica'" font-size="24">β</text>
	<path fill="#34478F" d="M533.5,35v202H187.3L533.5,35.2 M536.5,30L176.2,240h360.3V30L536.5,30z"/>
	
		<text transform="matrix(0.8664 -0.4993 0.4993 0.8664 340.5467 173.9827)" fill="#6774AA" font-family="'Helvetica'" font-size="18">Hypotenuse</text>
</g>
</svg>
