<?xml version="1.0" encoding="utf-8"?>
<!-- Generator: Adobe Illustrator 17.0.0, SVG Export Plug-In . SVG Version: 6.00 Build 0)  -->
<!DOCTYPE svg PUBLIC "-//W3C//DTD SVG 1.1 Tiny//EN" "http://www.w3.org/Graphics/SVG/1.1/DTD/svg11-tiny.dtd">
<svg version="1.1" baseProfile="tiny" id="Layer_1" xmlns="http://www.w3.org/2000/svg" xmlns:xlink="http://www.w3.org/1999/xlink"
	 x="0px" y="0px" width="660px" height="180px" viewBox="0 0 660 180" xml:space="preserve">
<rect x="340" fill="#FFFFFF" width="150" height="180"/>
<rect x="170" fill="#FFFFFF" width="150" height="180"/>
<rect fill="#FFFFFF" width="150" height="180"/>
<rect x="510" fill="#FFFFFF" width="150" height="180"/>
<g>
	<path d="M47.29,151.249h1.53l1.656,4.97c0.252,0.864,0.541,1.747,0.811,2.575h0.072c0.252-0.828,0.541-1.711,0.792-2.575
		l1.656-4.97h1.458L52.169,160h-1.729L47.29,151.249z"/>
	<path d="M60.161,151.033c2.232,0,3.493,1.603,3.493,4.105c0,0.306-0.018,0.594-0.054,0.811h-5.906
		c0.108,1.891,1.242,3.078,2.917,3.078c0.828,0,1.53-0.27,2.179-0.684l0.522,0.972c-0.756,0.486-1.692,0.9-2.881,0.9
		c-2.341,0-4.195-1.71-4.195-4.573C56.236,152.78,58.163,151.033,60.161,151.033z M62.358,154.977c0-1.782-0.792-2.772-2.161-2.772
		c-1.225,0-2.341,1.008-2.521,2.772H62.358z"/>
	<path d="M65.812,151.249h1.224l0.126,1.585h0.054c0.594-1.099,1.495-1.801,2.485-1.801c0.378,0,0.648,0.054,0.936,0.18
		l-0.288,1.297c-0.288-0.09-0.486-0.145-0.846-0.145c-0.738,0-1.621,0.541-2.215,2.018V160h-1.476V151.249z"/>
	<path d="M72.31,152.456h-1.296v-1.116l1.369-0.091l0.18-2.448h1.243v2.448h2.358v1.207h-2.358v4.861c0,1.08,0.342,1.692,1.35,1.692
		c0.306,0,0.702-0.126,0.99-0.234l0.288,1.116c-0.486,0.162-1.08,0.324-1.62,0.324c-1.873,0-2.503-1.188-2.503-2.917V152.456z"/>
	<path d="M77.872,148.494c0-0.576,0.45-0.954,1.026-0.954s1.026,0.378,1.026,0.954c0,0.559-0.45,0.955-1.026,0.955
		S77.872,149.053,77.872,148.494z M78.142,151.249h1.477V160h-1.477V151.249z"/>
	<path d="M86.134,151.033c1.152,0,1.962,0.486,2.557,1.045l-0.738,0.954c-0.522-0.45-1.062-0.774-1.764-0.774
		c-1.584,0-2.737,1.368-2.737,3.385c0,1.999,1.098,3.35,2.701,3.35c0.828,0,1.53-0.415,2.053-0.883l0.666,0.973
		c-0.792,0.702-1.801,1.134-2.845,1.134c-2.323,0-4.105-1.674-4.105-4.573C81.921,152.708,83.884,151.033,86.134,151.033z"/>
	<path d="M95.549,154.454c0-1.116-0.378-2.196-1.8-2.196c-1.026,0-1.927,0.468-2.611,0.937l-0.594-1.026
		c0.81-0.522,2.035-1.135,3.439-1.135c2.143,0,3.043,1.423,3.043,3.602V160h-1.224l-0.126-1.044h-0.036
		c-0.846,0.684-1.819,1.26-2.899,1.26c-1.477,0-2.575-0.918-2.575-2.484C90.166,155.822,91.822,154.868,95.549,154.454z
		 M93.154,159.027c0.846,0,1.548-0.414,2.395-1.17v-2.431c-2.935,0.36-3.925,1.08-3.925,2.196
		C91.624,158.613,92.29,159.027,93.154,159.027z"/>
	<path d="M99.813,147.18h1.477v11.164c0,0.468,0.198,0.648,0.414,0.648c0.09,0,0.162,0,0.324-0.036l0.198,1.116
		c-0.198,0.09-0.45,0.144-0.846,0.144c-1.116,0-1.566-0.702-1.566-1.98V147.18z"/>
</g>
<g>
	<path fill="#CCD0E3" d="M96,22v103H56V22H96 M99,19H53v109h46V19L99,19z"/>
	<rect x="59" y="86" fill="#6774AA" width="15" height="16"/>
	<rect x="59" y="66" fill="#6774AA" width="15" height="16"/>
	<rect x="59" y="106" fill="#6774AA" width="15" height="16"/>
	<rect x="59" y="25" fill="#6774AA" width="34" height="37"/>
</g>
<g>
	<path fill="#CCD0E3" d="M294,52v43h-98V52H294 M297,49H193v49h104V49L297,49z"/>
	<rect x="256" y="55" fill="#6774AA" width="15" height="16"/>
	<rect x="237" y="55" fill="#6774AA" width="15" height="16"/>
	<rect x="275" y="55" fill="#6774AA" width="15" height="16"/>
	<rect x="199" y="55" fill="#6774AA" width="34" height="37"/>
</g>
<g>
	<path d="M208.047,147.18h1.476v3.493l-0.054,1.801c0.828-0.792,1.71-1.44,2.917-1.44c1.836,0,2.665,1.188,2.665,3.421V160h-1.477
		v-5.348c0-1.639-0.504-2.341-1.656-2.341c-0.9,0-1.513,0.469-2.395,1.351V160h-1.476V147.18z"/>
	<path d="M221.242,151.033c2.143,0,4.051,1.675,4.051,4.609c0,2.899-1.909,4.573-4.051,4.573s-4.051-1.674-4.051-4.573
		C217.191,152.708,219.1,151.033,221.242,151.033z M221.242,158.992c1.513,0,2.521-1.351,2.521-3.35
		c0-2.017-1.008-3.385-2.521-3.385c-1.494,0-2.521,1.368-2.521,3.385C218.722,157.642,219.748,158.992,221.242,158.992z"/>
	<path d="M227.595,151.249h1.224l0.126,1.585H229c0.594-1.099,1.495-1.801,2.485-1.801c0.378,0,0.648,0.054,0.936,0.18l-0.288,1.297
		c-0.288-0.09-0.486-0.145-0.846-0.145c-0.738,0-1.621,0.541-2.215,2.018V160h-1.476V151.249z"/>
	<path d="M233.571,148.494c0-0.576,0.45-0.954,1.026-0.954s1.026,0.378,1.026,0.954c0,0.559-0.45,0.955-1.026,0.955
		S233.571,149.053,233.571,148.494z M233.841,151.249h1.477V160h-1.477V151.249z"/>
	<path d="M237.35,159.208l4.609-6.752h-4.105v-1.207h5.978v0.793l-4.609,6.752h4.753V160h-6.626V159.208z"/>
	<path d="M249.141,151.033c2.143,0,4.051,1.675,4.051,4.609c0,2.899-1.909,4.573-4.051,4.573s-4.051-1.674-4.051-4.573
		C245.09,152.708,246.999,151.033,249.141,151.033z M249.141,158.992c1.513,0,2.521-1.351,2.521-3.35
		c0-2.017-1.008-3.385-2.521-3.385c-1.495,0-2.521,1.368-2.521,3.385C246.621,157.642,247.646,158.992,249.141,158.992z"/>
	<path d="M255.494,151.249h1.224l0.126,1.261h0.054c0.828-0.828,1.729-1.477,2.935-1.477c1.836,0,2.665,1.188,2.665,3.421V160
		h-1.477v-5.348c0-1.639-0.504-2.341-1.656-2.341c-0.9,0-1.513,0.469-2.395,1.351V160h-1.477V151.249z"/>
	<path d="M265.592,152.456h-1.296v-1.116l1.368-0.091l0.18-2.448h1.243v2.448h2.358v1.207h-2.358v4.861
		c0,1.08,0.342,1.692,1.35,1.692c0.306,0,0.702-0.126,0.99-0.234l0.288,1.116c-0.486,0.162-1.08,0.324-1.62,0.324
		c-1.873,0-2.503-1.188-2.503-2.917V152.456z"/>
	<path d="M276.052,154.454c0-1.116-0.378-2.196-1.8-2.196c-1.026,0-1.927,0.468-2.611,0.937l-0.594-1.026
		c0.81-0.522,2.035-1.135,3.439-1.135c2.143,0,3.043,1.423,3.043,3.602V160h-1.224l-0.126-1.044h-0.036
		c-0.846,0.684-1.819,1.26-2.899,1.26c-1.477,0-2.575-0.918-2.575-2.484C270.668,155.822,272.325,154.868,276.052,154.454z
		 M273.657,159.027c0.846,0,1.548-0.414,2.395-1.17v-2.431c-2.935,0.36-3.925,1.08-3.925,2.196
		C272.127,158.613,272.793,159.027,273.657,159.027z"/>
	<path d="M280.316,147.18h1.477v11.164c0,0.468,0.198,0.648,0.414,0.648c0.09,0,0.162,0,0.324-0.036l0.198,1.116
		c-0.198,0.09-0.45,0.144-0.846,0.144c-1.116,0-1.566-0.702-1.566-1.98V147.18z"/>
</g>
<g>
	<path d="M386.715,151.033c1.008,0,1.674,0.378,2.449,1.009l-0.072-1.495v-3.367h1.494V160h-1.225l-0.126-1.026h-0.054
		c-0.685,0.666-1.621,1.242-2.646,1.242c-2.197,0-3.619-1.656-3.619-4.573C382.916,152.798,384.717,151.033,386.715,151.033z
		 M386.859,158.974c0.81,0,1.512-0.396,2.232-1.206v-4.573c-0.738-0.667-1.404-0.919-2.125-0.919c-1.404,0-2.521,1.351-2.521,3.35
		C384.446,157.713,385.328,158.974,386.859,158.974z"/>
	<path d="M393.266,148.494c0-0.576,0.45-0.954,1.026-0.954s1.026,0.378,1.026,0.954c0,0.559-0.45,0.955-1.026,0.955
		S393.266,149.053,393.266,148.494z M393.535,151.249h1.477V160h-1.477V151.249z"/>
	<path d="M402.914,154.454c0-1.116-0.377-2.196-1.8-2.196c-1.026,0-1.927,0.468-2.61,0.937l-0.595-1.026
		c0.811-0.522,2.034-1.135,3.438-1.135c2.143,0,3.043,1.423,3.043,3.602V160h-1.224l-0.126-1.044h-0.036
		c-0.847,0.684-1.819,1.26-2.899,1.26c-1.477,0-2.574-0.918-2.574-2.484C397.531,155.822,399.188,154.868,402.914,154.454z
		 M400.52,159.027c0.847,0,1.549-0.414,2.395-1.17v-2.431c-2.934,0.36-3.924,1.08-3.924,2.196
		C398.99,158.613,399.656,159.027,400.52,159.027z"/>
	<path d="M407.791,159.694v-0.072c-0.432-0.271-0.773-0.738-0.773-1.423c0-0.738,0.504-1.314,0.953-1.62v-0.072
		c-0.576-0.468-1.134-1.314-1.134-2.358c0-1.909,1.513-3.115,3.295-3.115c0.486,0,0.919,0.09,1.243,0.216h3.042v1.135h-1.8
		c0.414,0.396,0.72,1.062,0.72,1.801c0,1.872-1.423,3.043-3.205,3.043c-0.433,0-0.918-0.108-1.314-0.307
		c-0.306,0.271-0.558,0.559-0.558,1.045c0,0.558,0.359,0.954,1.548,0.954h1.692c2.035,0,3.062,0.63,3.062,2.088
		c0,1.621-1.711,3.025-4.43,3.025c-2.143,0-3.619-0.847-3.619-2.358C406.513,160.937,406.999,160.234,407.791,159.694z
		 M410.348,163.007c1.675,0,2.773-0.864,2.773-1.782c0-0.811-0.631-1.08-1.765-1.08h-1.513c-0.342,0-0.756-0.036-1.135-0.145
		c-0.63,0.45-0.9,0.973-0.9,1.477C407.809,162.413,408.764,163.007,410.348,163.007z M411.986,154.148
		c0-1.278-0.828-2.035-1.854-2.035s-1.854,0.757-1.854,2.035s0.846,2.089,1.854,2.089S411.986,155.427,411.986,154.148z"/>
	<path d="M419.402,151.033c2.143,0,4.051,1.675,4.051,4.609c0,2.899-1.908,4.573-4.051,4.573s-4.051-1.674-4.051-4.573
		C415.352,152.708,417.26,151.033,419.402,151.033z M419.402,158.992c1.513,0,2.521-1.351,2.521-3.35
		c0-2.017-1.009-3.385-2.521-3.385c-1.494,0-2.521,1.368-2.521,3.385C416.882,157.642,417.908,158.992,419.402,158.992z"/>
	<path d="M425.756,151.249h1.224l0.126,1.261h0.055c0.828-0.828,1.729-1.477,2.935-1.477c1.837,0,2.665,1.188,2.665,3.421V160
		h-1.477v-5.348c0-1.639-0.504-2.341-1.656-2.341c-0.9,0-1.514,0.469-2.396,1.351V160h-1.476V151.249z"/>
	<path d="M440.553,154.454c0-1.116-0.378-2.196-1.801-2.196c-1.025,0-1.926,0.468-2.61,0.937l-0.595-1.026
		c0.811-0.522,2.035-1.135,3.439-1.135c2.143,0,3.043,1.423,3.043,3.602V160h-1.225l-0.126-1.044h-0.036
		c-0.846,0.684-1.818,1.26-2.898,1.26c-1.477,0-2.574-0.918-2.574-2.484C435.17,155.822,436.826,154.868,440.553,154.454z
		 M438.158,159.027c0.846,0,1.549-0.414,2.395-1.17v-2.431c-2.935,0.36-3.925,1.08-3.925,2.196
		C436.628,158.613,437.294,159.027,438.158,159.027z"/>
	<path d="M444.817,147.18h1.477v11.164c0,0.468,0.198,0.648,0.414,0.648c0.09,0,0.162,0,0.323-0.036l0.199,1.116
		c-0.199,0.09-0.451,0.144-0.847,0.144c-1.116,0-1.566-0.702-1.566-1.98V147.18z"/>
</g>
<g>
	<path fill="#CCD0E3" d="M462,23v104h-94V23H462 M465,20H365v110h100V20L465,20z"/>
	<rect x="389" y="87" fill="#6774AA" width="15" height="16"/>
	<rect x="406" y="68" fill="#6774AA" width="15" height="16"/>
	<rect x="372" y="107" fill="#6774AA" width="15" height="16"/>
	<rect x="424" y="27" fill="#6774AA" width="34" height="37"/>
</g>
<g>
	<path d="M564.237,158.02c0.757,0.612,1.53,1.044,2.575,1.044c1.152,0,1.729-0.612,1.729-1.368c0-0.9-1.045-1.297-1.999-1.656
		c-1.242-0.45-2.61-1.045-2.61-2.521c0-1.404,1.116-2.484,3.007-2.484c1.099,0,2.052,0.45,2.719,0.99l-0.702,0.937
		c-0.594-0.45-1.225-0.774-1.999-0.774c-1.099,0-1.603,0.595-1.603,1.261c0,0.81,0.955,1.134,1.945,1.513
		c1.26,0.468,2.664,0.99,2.664,2.646c0,1.422-1.134,2.61-3.205,2.61c-1.242,0-2.43-0.521-3.259-1.206L564.237,158.02z"/>
	<path d="M572.014,151.249h1.225l0.125,1.261h0.055c0.756-0.828,1.674-1.477,2.719-1.477c1.332,0,2.053,0.63,2.412,1.675
		c0.919-0.99,1.819-1.675,2.881-1.675c1.801,0,2.666,1.188,2.666,3.421V160h-1.477v-5.348c0-1.639-0.522-2.341-1.621-2.341
		c-0.684,0-1.387,0.45-2.196,1.351V160h-1.477v-5.348c0-1.639-0.522-2.341-1.639-2.341c-0.647,0-1.386,0.45-2.196,1.351V160h-1.477
		V151.249z"/>
	<path d="M591.887,154.454c0-1.116-0.378-2.196-1.801-2.196c-1.025,0-1.926,0.468-2.61,0.937l-0.595-1.026
		c0.811-0.522,2.035-1.135,3.439-1.135c2.143,0,3.043,1.423,3.043,3.602V160h-1.225l-0.126-1.044h-0.036
		c-0.846,0.684-1.818,1.26-2.898,1.26c-1.477,0-2.574-0.918-2.574-2.484C586.504,155.822,588.16,154.868,591.887,154.454z
		 M589.492,159.027c0.846,0,1.549-0.414,2.395-1.17v-2.431c-2.935,0.36-3.925,1.08-3.925,2.196
		C587.962,158.613,588.628,159.027,589.492,159.027z"/>
	<path d="M596.151,151.249h1.224l0.127,1.585h0.054c0.595-1.099,1.495-1.801,2.485-1.801c0.377,0,0.647,0.054,0.936,0.18
		l-0.288,1.297c-0.288-0.09-0.485-0.145-0.847-0.145c-0.738,0-1.62,0.541-2.214,2.018V160h-1.477V151.249z"/>
	<path d="M602.648,152.456h-1.296v-1.116l1.368-0.091l0.18-2.448h1.243v2.448h2.358v1.207h-2.358v4.861
		c0,1.08,0.342,1.692,1.351,1.692c0.306,0,0.701-0.126,0.99-0.234l0.287,1.116c-0.485,0.162-1.08,0.324-1.619,0.324
		c-1.873,0-2.504-1.188-2.504-2.917V152.456z"/>
</g>
<g>
	<rect x="578" y="45" fill="#6774AA" width="15" height="16"/>
	<rect x="559" y="45" fill="#6774AA" width="15" height="16"/>
	<rect x="597" y="45" fill="#6774AA" width="15" height="16"/>
	<rect x="559" y="65" fill="#6774AA" width="34" height="37"/>
	<path fill="#CCD0E3" d="M616,41v65h-61V41H616 M619,38h-67v71h67V38L619,38z"/>
</g>
<g>
</g>
<g>
</g>
<g>
</g>
<g>
</g>
<g>
</g>
<g>
</g>
<g>
</g>
<g>
</g>
<g>
</g>
<g>
</g>
<g>
</g>
<g>
</g>
<g>
</g>
<g>
</g>
<g>
</g>
</svg>
