<?xml version="1.0" encoding="utf-8"?>
<!-- Generator: Adobe Illustrator 17.0.0, SVG Export Plug-In . SVG Version: 6.00 Build 0)  -->
<!DOCTYPE svg PUBLIC "-//W3C//DTD SVG 1.1 Tiny//EN" "http://www.w3.org/Graphics/SVG/1.1/DTD/svg11-tiny.dtd">
<svg version="1.1" baseProfile="tiny" id="Layer_1" xmlns="http://www.w3.org/2000/svg" xmlns:xlink="http://www.w3.org/1999/xlink"
	 x="0px" y="0px" width="603px" height="153px" viewBox="0 0 603 153" xml:space="preserve">
<g>
	<g>
		<rect x="1.5" y="1.5" fill="#FFFFFF" width="600" height="150"/>
		<path d="M600,3v147H3V3H600 M603,0H0v153h603V0L603,0z"/>
	</g>
	<g>
		<rect x="75" y="3" fill="#E5E5E5" width="3" height="147"/>
		<rect x="150" y="3" fill="#E5E5E5" width="3" height="147"/>
		<rect x="225" y="3" fill="#E5E5E5" width="3" height="147"/>
		<rect x="300" y="3" fill="#E5E5E5" width="3" height="147"/>
		<rect x="375" y="3" fill="#E5E5E5" width="3" height="147"/>
		<rect x="450" y="3" fill="#E5E5E5" width="3" height="147"/>
		<rect x="525" y="3" fill="#E5E5E5" width="3" height="147"/>
		<rect x="3" y="75" fill="#E5E5E5" width="597" height="3"/>
	</g>
</g>
<g id="ordered-list_2_">
	<g>
		<rect x="409.611" y="24" width="25.389" height="3"/>
		<rect x="409.611" y="39" width="25.389" height="3"/>
		<rect x="409.611" y="54" width="25.389" height="3"/>
	</g>
	<g>
		<path fill="#34478F" d="M402.3,27.3c-0.375-0.375-0.3-1.5-0.3-1.5V18h-2.7c0,0-0.066,1.734-0.956,2.297
			C397.635,20.745,396,21,396,21v2.25l3.3-0.45v3c0,0,0.052,1.148-0.3,1.5c-0.328,0.328-1.2,0.3-1.2,0.3H396V30h9v-2.4h-1.5
			C403.5,27.6,402.652,27.652,402.3,27.3z"/>
		<path fill="#34478F" d="M396,34.266c0,0,1.734-1.312,4.125-1.266c2.531,0.05,4.576,1.271,4.815,3.422
			c0.375,3.375-4.721,5.878-4.721,5.878H405V45h-9v-3.3c0,0,6.047-2.138,6-4.528c-0.024-1.23-1.312-1.688-3.141-1.5
			c-1.212,0.124-2.859,0.938-2.859,0.938V34.266z"/>
		<path fill="#34478F" d="M396,49.078c0,0,1.266-1.078,3.516-1.125c2.862-0.06,4.093,0.888,4.359,2.531
			c0.281,1.734-0.703,2.625-0.703,2.625s1.811,1.223,1.781,3.047C404.905,59.103,402,60,400.421,60
			c-3.859,0-4.421-0.656-4.421-0.656V57c0,0,2.693,0.562,3.656,0.562c1.266,0,1.947-0.261,2.291-0.878
			c1.131-2.028-2.619-2.544-2.619-2.544l-0.047-1.125c0,0,2.166-0.224,2.203-1.266c0.047-1.312-1.125-1.688-2.719-1.641
			C397.5,50.147,396,51,396,51V49.078z"/>
	</g>
</g>
<g id="media_1_">
	<g>
		<path fill="#34478F" d="M395,96c-1.1,0-2,0.9-2,2v32c0,1.1,0.9,2,2,2h20c1.1,0,2-0.9,2-2v-14c0-1.1,0.9-2,2-2h8c1.1,0,2-0.9,2-2
			V98c0-1.1-0.9-2-2-2H395z"/>
		<g>
			<rect x="396" y="99" fill="#FFFFFF" width="30" height="30"/>
			<polygon fill="#CCD0E3" points="417,114 423,114 423,102 399,102 399,126 417,126 			"/>
			<rect x="399" y="123" fill="#6774AA" width="18" height="3"/>
			<path fill="#6774AA" d="M418.714,109.5c0,4.145-3.454,7.5-7.714,7.5c-4.26,0-7.714-3.355-7.714-7.5c0-4.137,3.454-7.5,7.714-7.5
				C415.26,102,418.714,105.363,418.714,109.5z"/>
			<rect x="408" y="117" fill="#6774AA" width="6" height="6"/>
		</g>
		<path d="M414,111v27h24v-27H414z M435,129h-3v3h3v3h-3h-12h-3v-3h3v-3h-3v-3h3h12h3V129z M435,117h-3v3h3v3h-3h-12h-3v-3h3v-3h-3
			v-3h3h12h3V117z"/>
		<g>
			<rect x="420" y="114" fill="#6774AA" width="12" height="9"/>
			<rect x="420" y="126" fill="#6774AA" width="12" height="9"/>
		</g>
	</g>
</g>
<g id="image_1_">
	<g>
		<rect x="318" y="93" fill="#FFFFFF" width="42" height="42"/>
		<path d="M357,96v36h-36V96H357 M359,93h-40c-0.55,0-1,0.45-1,1v40c0,0.55,0.45,1,1,1h40c0.55,0,1-0.45,1-1V94
			C360,93.45,359.55,93,359,93L359,93z"/>
	</g>
	<rect x="324" y="99" fill="#CCD0E3" width="30" height="30"/>
	<path fill="#6774AA" d="M348,111c4.277,6-1.91,9-9,9c-7.09,0-12.838-3-8.561-9c3.173-4.447,1.471-9,8.561-9
		C346.09,102,344.827,106.553,348,111z"/>
	<rect x="324" y="126" fill="#6774AA" width="30" height="3"/>
	<rect x="336" y="120" fill="#6774AA" width="6" height="6"/>
</g>
<g id="heading-3_1_">
	<path d="M175.763,114.59c-1.476,0-1.512,0.036-1.512,1.044v5.183c0,3.348,0.216,3.672,1.835,3.888l1.152,0.144
		c0.288,0.216,0.288,1.044,0,1.26c-2.052-0.072-3.852-0.108-5.471-0.108c-1.728,0-3.527,0.036-5.363,0.108
		c-0.288-0.216-0.288-1.044,0-1.26l0.864-0.108c1.656-0.216,1.836-0.576,1.836-3.924v-13.39c0-3.348-0.18-3.708-1.836-3.923
		l-0.864-0.108c-0.288-0.216-0.288-1.044,0-1.26c1.764,0.072,3.636,0.108,5.363,0.108c1.62,0,3.419-0.036,5.003-0.108
		c0.288,0.216,0.288,1.044,0,1.26l-0.756,0.108c-1.548,0.216-1.764,0.576-1.764,3.923v4.175c0,1.044,0.036,1.08,1.512,1.08h7.487
		c1.512,0,1.512-0.036,1.512-1.08v-4.175c0-3.348-0.18-3.635-1.836-3.887l-0.972-0.144c-0.288-0.216-0.288-1.044,0-1.26
		c1.979,0.072,3.743,0.108,5.471,0.108c1.764,0,3.419-0.036,5.075-0.108c0.288,0.216,0.288,1.044,0,1.26l-0.72,0.108
		c-1.656,0.252-1.872,0.576-1.872,3.923v13.39c0,3.348,0.216,3.6,1.872,3.888l0.864,0.144c0.288,0.216,0.288,1.044,0,1.26
		c-1.8-0.072-3.563-0.108-5.219-0.108c-1.8,0-3.563,0.036-5.292,0.108c-0.288-0.216-0.288-1.044,0-1.26l0.792-0.108
		c1.656-0.216,1.836-0.576,1.836-3.924v-5.183c0-1.008,0-1.044-1.512-1.044H175.763z"/>
	<path d="M196.896,108.219c-0.504,0.144-1.008-0.252-1.008-0.684c1.439-2.916,4.283-4.571,7.523-4.571
		c3.527,0,5.723,1.728,5.723,4.14c0,1.476-0.612,2.952-4.535,4.643c-0.396,0.18-0.144,0.468,0.324,0.468
		c3.24-0.108,6.047,2.124,6.047,5.579c0,2.592-1.26,5.219-4.14,7.343c-3.096,2.231-6.371,2.879-8.315,2.879s-3.888-0.72-3.888-2.556
		c0-0.972,0.72-1.979,2.16-1.979c1.295,0,2.087,1.439,2.412,1.908c0.432,0.648,1.044,0.828,1.548,0.828
		c1.548,0,4.823-2.052,4.823-6.479c0-3.204-1.656-5.507-4.211-5.507c-1.476,0-2.664,0.684-3.563,1.512
		c-0.72-0.144-1.152-0.9-0.828-1.728c1.44-0.54,4.355-1.728,5.795-2.916c0.648-0.54,1.512-1.62,1.512-3.239
		c0-1.332-1.188-2.628-2.952-2.628C199.596,105.231,197.976,106.599,196.896,108.219z"/>
</g>
<g id="heading-2_1_">
	<path d="M100.763,114.59c-1.476,0-1.512,0.036-1.512,1.044v5.183c0,3.348,0.216,3.672,1.835,3.888l1.152,0.144
		c0.288,0.216,0.288,1.044,0,1.26c-2.052-0.072-3.852-0.108-5.471-0.108c-1.728,0-3.527,0.036-5.363,0.108
		c-0.288-0.216-0.288-1.044,0-1.26l0.864-0.108c1.656-0.216,1.836-0.576,1.836-3.924v-13.39c0-3.348-0.18-3.708-1.836-3.923
		l-0.864-0.108c-0.288-0.216-0.288-1.044,0-1.26c1.764,0.072,3.636,0.108,5.363,0.108c1.62,0,3.419-0.036,5.003-0.108
		c0.288,0.216,0.288,1.044,0,1.26l-0.756,0.108c-1.548,0.216-1.764,0.576-1.764,3.923v4.175c0,1.044,0.036,1.08,1.512,1.08h7.487
		c1.512,0,1.512-0.036,1.512-1.08v-4.175c0-3.348-0.18-3.635-1.836-3.887l-0.972-0.144c-0.288-0.216-0.288-1.044,0-1.26
		c1.979,0.072,3.743,0.108,5.471,0.108c1.764,0,3.419-0.036,5.075-0.108c0.288,0.216,0.288,1.044,0,1.26l-0.72,0.108
		c-1.656,0.252-1.872,0.576-1.872,3.923v13.39c0,3.348,0.216,3.6,1.872,3.888l0.864,0.144c0.288,0.216,0.288,1.044,0,1.26
		c-1.8-0.072-3.563-0.108-5.219-0.108c-1.8,0-3.563,0.036-5.292,0.108c-0.288-0.216-0.288-1.044,0-1.26l0.792-0.108
		c1.656-0.216,1.836-0.576,1.836-3.924v-5.183c0-1.008,0-1.044-1.512-1.044H100.763z"/>
	<path d="M131.327,122.293c2.627,0,3.06-0.072,4.104-1.98c0.252-0.252,1.08-0.252,1.224,0.216c-0.324,2.231-1.152,4.715-1.764,5.579
		c-1.44-0.072-2.736-0.108-5.04-0.108h-5.723c-1.872,0-3.419,0.036-4.031,0.108c-0.324-0.072-0.432-0.468-0.36-0.792
		c1.368-1.26,3.42-3.167,5.58-5.543c2.483-2.736,4.715-5.759,4.715-9.611c0-2.484-1.512-4.392-3.923-4.392
		c-2.052,0-3.492,1.332-4.644,3.312c-0.432,0.288-1.116,0.072-1.188-0.504c1.476-3.635,4.788-5.615,8.279-5.615
		c4.212,0,6.803,2.736,6.803,6.119c0,2.808-1.116,4.823-5.435,8.891l-1.728,1.62c-1.583,1.476-1.908,1.98-1.908,2.268
		c0,0.216,0.18,0.432,0.684,0.432H131.327z"/>
</g>
<g id="heading-1_1_">
	<path d="M28.763,114.59c-1.476,0-1.512,0.036-1.512,1.044v5.183c0,3.348,0.216,3.672,1.835,3.888l1.152,0.144
		c0.288,0.216,0.288,1.044,0,1.26c-2.052-0.072-3.852-0.108-5.471-0.108c-1.728,0-3.527,0.036-5.363,0.108
		c-0.288-0.216-0.288-1.044,0-1.26l0.864-0.108c1.656-0.216,1.836-0.576,1.836-3.924v-13.39c0-3.348-0.18-3.708-1.836-3.923
		l-0.864-0.108c-0.288-0.216-0.288-1.044,0-1.26c1.764,0.072,3.636,0.108,5.363,0.108c1.62,0,3.419-0.036,5.003-0.108
		c0.288,0.216,0.288,1.044,0,1.26l-0.756,0.108c-1.548,0.216-1.764,0.576-1.764,3.923v4.175c0,1.044,0.036,1.08,1.512,1.08h7.487
		c1.512,0,1.512-0.036,1.512-1.08v-4.175c0-3.348-0.18-3.635-1.836-3.887l-0.972-0.144c-0.288-0.216-0.288-1.044,0-1.26
		c1.979,0.072,3.743,0.108,5.471,0.108c1.764,0,3.419-0.036,5.075-0.108c0.288,0.216,0.288,1.044,0,1.26l-0.72,0.108
		c-1.656,0.252-1.872,0.576-1.872,3.923v13.39c0,3.348,0.216,3.6,1.872,3.888l0.864,0.144c0.288,0.216,0.288,1.044,0,1.26
		c-1.8-0.072-3.563-0.108-5.219-0.108c-1.8,0-3.563,0.036-5.292,0.108c-0.288-0.216-0.288-1.044,0-1.26l0.792-0.108
		c1.656-0.216,1.836-0.576,1.836-3.924v-5.183c0-1.008,0-1.044-1.512-1.044H28.763z"/>
	<path d="M56.195,121.357c0,2.88,0.216,3.24,1.98,3.384l1.476,0.108c0.324,0.216,0.288,1.152-0.072,1.26
		c-1.296-0.072-3.456-0.108-5.688-0.108c-2.375,0-4.535,0.036-5.831,0.108c-0.36-0.108-0.396-1.044-0.072-1.26l1.476-0.108
		c1.764-0.144,1.979-0.504,1.979-3.384V109.73c0-2.375-0.144-2.916-1.728-3.131l-1.656-0.216c-0.324-0.18-0.36-1.044-0.072-1.26
		c1.476-0.216,3.168-0.612,4.607-1.008c1.584-0.468,2.952-1.152,3.204-1.152c0.18,0,0.432,0.108,0.504,0.396
		c-0.072,0.828-0.108,2.484-0.108,4.283V121.357z"/>
</g>
<g id="outdent_1_">
	<rect x="543" y="24" width="36" height="3"/>
	<rect x="555" y="30" width="24" height="6"/>
	<rect x="555" y="39" width="24" height="6"/>
	<rect x="543" y="48" width="36" height="3"/>
	<rect x="543" y="54" width="27" height="3"/>
	<polygon fill="#34478F" points="549,30 540,37.57 549,45 549,39 552,39 552,36 549,36 	"/>
</g>
<g id="indent_1_">
	<rect x="468" y="24" width="36" height="3"/>
	<rect x="480" y="30" width="24" height="6"/>
	<rect x="480" y="39" width="24" height="6"/>
	<rect x="468" y="48" width="36" height="3"/>
	<rect x="468" y="54" width="27" height="3"/>
	<polygon fill="#34478F" points="468,30 476.572,37.57 468,45 468,39 465,39 465,36 468,36 	"/>
</g>
<g id="unorderd-list">
	<g>
		<rect x="334.611" y="24" width="25.389" height="3"/>
		<rect x="334.611" y="39" width="25.389" height="3"/>
		<rect x="334.611" y="54" width="25.389" height="3"/>
	</g>
	<g>
		<path fill="#34478F" d="M330,25.5c0-2.485-2.015-4.5-4.5-4.5l0,0c-2.485,0-4.5,2.015-4.5,4.5l0,0c0,2.485,2.015,4.5,4.5,4.5l0,0
			C327.985,30,330,27.985,330,25.5L330,25.5z"/>
	</g>
	<g>
		<path fill="#34478F" d="M330,40.5c0-2.485-2.015-4.5-4.5-4.5l0,0c-2.485,0-4.5,2.015-4.5,4.5l0,0c0,2.485,2.015,4.5,4.5,4.5l0,0
			C327.985,45,330,42.985,330,40.5L330,40.5z"/>
	</g>
	<g>
		<path fill="#34478F" d="M330,55.5c0-2.485-2.015-4.5-4.5-4.5l0,0c-2.485,0-4.5,2.015-4.5,4.5l0,0c0,2.485,2.015,4.5,4.5,4.5l0,0
			C327.985,60,330,57.985,330,55.5L330,55.5z"/>
	</g>
</g>
<g id="code_1_">
	<polygon points="258,30 261,30 261,33 252,40.5 261,48 261,51 258,51 246,40.5 	"/>
	<polygon points="270,30 267,30 267,33 276,40.5 267,48 267,51 270,51 282,40.5 	"/>
</g>
<g id="link_1_">
	<path d="M190.463,44.915c-2.002,0-4.742-1.483-6.315-2.531l2.745-1.597c0.889,0.536,2.585,1.717,3.678,1.717
		c1.436-0.006,2.774-0.355,3.775-1.201l7.434-6.255c1.022-0.879,1.588-2.016,1.592-3.255c-0.004-1.257-0.57-2.402-1.594-3.273
		l-0.315-0.264c-0.989-0.838-2.316-1.307-3.731-1.318c-1.469,0.012-2.757,0.475-3.762,1.33l-4.128,3.155
		c-0.347,0.29-0.851,0.513-1.351,0.513c-0.498,0-0.948-0.117-1.294-0.41c-0.324-0.275-0.393-0.647-0.393-1.025
		c0-0.375,0.293-0.645,0.617-0.926l3.926-3.337c1.67-1.424,3.99-2.238,6.368-2.238c2.376,0,4.695,0.815,6.366,2.235l0.321,0.272
		c1.651,1.403,2.599,3.337,2.596,5.306c0.003,1.975-0.945,3.914-2.599,5.32l-7.427,5.361c-1.677,1.427-3.955,2.485-6.338,2.485
		L190.463,44.915z"/>
	<path d="M180.242,57c-2.351,0-4.655-1.113-6.328-2.537l-0.325-0.413c-1.646-1.394-2.591-3.41-2.588-5.393
		c-0.003-1.972,0.942-3.935,2.593-5.335l7.433-6.334c1.674-1.421,3.983-2.244,6.344-2.244c1.876,0,3.702,0.486,5.197,1.374
		c0.054,0.032,0.114,0.062,0.177,0.088c0.087,0.035,1.027,0.955,1.108,1.008L191.361,39c-0.888-0.53-2.855-1.321-3.961-1.324
		c-1.421,0.003-2.748,0.469-3.75,1.315l-7.434,6.319c-1.023,0.87-1.585,2.03-1.594,3.27c0.009,1.271,0.576,2.438,1.594,3.301
		l0.331,0.275c0.98,0.838,2.3,1.312,3.7,1.319c1.443-0.006,2.786-0.481,3.788-1.333l4.543-4.362
		c0.347-0.293,1.075-1.702,1.576-1.702c0.498,0,1.192,0.322,1.538,0.615c0.322,0.275,0.072,1.743,0.072,2.118
		c0,0.381-0.549,0.899-0.873,1.172l-4.236,4.48c-1.673,1.424-3.999,2.537-6.387,2.537H180.242z"/>
</g>
<g>
	<path d="M115.655,55.779L115.293,57H100.5l0.362-1.221h0.802c1.069,0,1.974-0.199,2.716-0.597s1.246-0.858,1.513-1.381
		c0.267-0.522,0.659-1.668,1.177-3.438l6.75-22.912c0.534-1.77,0.802-2.876,0.802-3.319c0-1.274-1.112-1.912-3.336-1.912h-0.931
		L110.716,21H124.5l-0.362,1.221h-0.724c-0.828,0-1.578,0.15-2.25,0.451c-0.672,0.301-1.151,0.717-1.435,1.248
		s-0.754,1.903-1.409,4.115l-6.543,22.062c-0.5,1.681-0.75,2.743-0.75,3.186c0,0.867,0.366,1.5,1.099,1.898s1.573,0.597,2.522,0.597
		H115.655z"/>
</g>
<g>
	<path d="M45.126,37.971c3.516,0.633,6.152,1.755,7.91,3.365s2.637,3.708,2.637,6.295c0,2.903-1.125,5.191-3.375,6.862
		S46.312,57,41.092,57H22.345v-2.93c1.881,0,3.129-0.295,3.744-0.884s0.923-1.755,0.923-3.497V28.707c0-1.689-0.29-2.842-0.87-3.457
		c-0.58-0.616-1.846-0.924-3.797-0.924v-2.93L36.082,21h1.951c6.188,0,10.406,0.77,12.656,2.309c2.25,1.54,3.375,3.638,3.375,6.295
		c0,2.006-0.743,3.704-2.228,5.094S48.114,37.179,45.126,37.971z M36,35.944h2.191c1.934,0,3.375-0.559,4.324-1.465
		s1.424-2.306,1.424-4.54c0-1.672-0.299-2.56-0.896-3.528c-0.598-0.968-1.384-1.592-2.36-1.874S37.898,23.933,36,23.933V35.944z
		 M36,38.947v10.874c0,0.985,0.22,1.754,0.422,2.264c0.202,0.51,0.851,0.916,1.44,1.26s1.419,0.617,2.492,0.617
		c1.67,0,2.922-0.692,3.757-1.871s1.252-2.947,1.252-5.305c0-1.883-0.272-3.356-0.817-4.421c-0.545-1.065-1.362-2.298-2.312-2.667
		c-0.949-0.37-2.285-0.751-4.148-0.751H36z"/>
</g>
<rect id="attachment" x="462" y="87" fill="none" width="48" height="48"/>
<rect id="media" x="390" y="93" fill="none" width="48" height="48"/>
<rect id="image" x="315" y="90" fill="none" width="48" height="48"/>
<rect id="heading-3" x="165" y="90" fill="none" width="48" height="48"/>
<rect id="heading-2" x="90" y="90" fill="none" width="48" height="48"/>
<rect id="heading-1" x="15" y="90" fill="none" width="48" height="48"/>
<rect id="outdent" x="537" y="15" fill="none" width="48" height="48"/>
<rect id="indent" x="462" y="15" fill="none" width="48" height="48"/>
<rect id="ordered-list" x="390" y="15" fill="none" width="48" height="48"/>
<rect id="unordered-list" x="315" y="15" fill="none" width="48" height="48"/>
<rect id="code" x="240" y="15" fill="none" width="48" height="48"/>
<rect id="link" x="165" y="15" fill="none" width="48" height="48"/>
<rect id="italic" x="90" y="15" fill="none" width="48" height="48"/>
<rect id="bold" x="15" y="15" fill="none" width="48" height="48"/>
<path d="M264,105v-3c-1.65,0-3,1.35-3,3H264z"/>
<path d="M255,108L255,108c0-3.3-2.7-6-6-6h-3h-3h-3v3h3v12v3v3h-3v3h3h3h3v-3h-3v-3h3c3.3,0,6-2.7,6-6l0,0V108z M249,117h-3v-12h3
	c1.65,0,3,1.35,3,3l0,0v6l0,0C252,115.65,250.65,117,249,117z"/>
<path d="M266.016,104.766c0.939-0.03,1.827,0.75,2.109,1.923l2.766-1.032c-0.657-1.641-1.593-3.423-4.641-3.516
	c-1.221-0.039-3.192,0.546-3.987,1.653C261.174,102.69,259.665,102,258,102v3c1.65,0,3,1.35,3,3v9h-3v3h9v-3h-3v-9
	C264,106.344,264.564,104.814,266.016,104.766z"/>
<path d="M283.5,102h-6c-2.475,0-4.5,2.025-4.5,4.5v1.5v3v4.5c0,2.475,2.025,4.5,4.5,4.5h6c2.475,0,4.5-2.025,4.5-4.5l-3-0.609v0.609
	c0,0.825-0.675,1.5-1.5,1.5h-6c-0.825,0-1.5-0.675-1.5-1.5V111h9h3v-3v-1.5C288,104.025,285.975,102,283.5,102z M276,108v-1.5
	c0-0.825,0.675-1.5,1.5-1.5h6c0.825,0,1.5,0.675,1.5,1.5v1.5H276z"/>
<path d="M476.782,131.931c-2.159,0-4.188-0.841-5.714-2.367c-1.526-1.523-2.367-3.554-2.367-5.713s0.841-4.189,2.367-5.713
	l22.009-22.011c2.016-2.017,4.696-3.127,7.547-3.127c2.854,0,5.534,1.11,7.55,3.127c4.163,4.162,4.163,10.935,0,15.097l-18.34,18.34
	c-0.059,0.059-0.136,0.088-0.212,0.088s-0.154-0.029-0.212-0.088l-1.223-1.222c-0.056-0.056-0.088-0.132-0.088-0.211
	s0.032-0.155,0.088-0.211l18.341-18.344c1.576-1.576,2.443-3.672,2.443-5.902c0-2.228-0.867-4.324-2.443-5.9
	s-3.674-2.445-5.903-2.445c-2.227,0-4.324,0.869-5.9,2.445l-22.008,22.008c-2.244,2.244-2.244,5.895,0,8.139
	c1.085,1.084,2.53,1.682,4.066,1.682s2.981-0.598,4.068-1.682l19.566-19.566c1.23-1.232,1.23-3.234,0-4.466
	c-0.598-0.596-1.392-0.926-2.235-0.926s-1.638,0.33-2.235,0.926l-15.894,15.894c-0.059,0.059-0.136,0.088-0.212,0.088
	s-0.154-0.029-0.212-0.088l-1.223-1.222c-0.056-0.056-0.088-0.132-0.088-0.211s0.032-0.155,0.088-0.211l15.898-15.898
	c1.034-1.036,2.411-1.607,3.879-1.607c1.465,0,2.842,0.571,3.879,1.607c2.139,2.14,2.139,5.621,0,7.761l-19.563,19.563
	C480.97,131.09,478.941,131.931,476.782,131.931z"/>
<g>
</g>
<g>
</g>
<g>
</g>
<g>
</g>
<g>
</g>
<g>
</g>
<g>
</g>
<g>
</g>
<g>
</g>
<g>
</g>
<g>
</g>
<g>
</g>
<g>
</g>
<g>
</g>
<g>
</g>
</svg>
