<?xml version="1.0" encoding="utf-8"?>
<!-- Generator: Adobe Illustrator 17.0.0, SVG Export Plug-In . SVG Version: 6.00 Build 0)  -->
<!DOCTYPE svg PUBLIC "-//W3C//DTD SVG 1.1 Tiny//EN" "http://www.w3.org/Graphics/SVG/1.1/DTD/svg11-tiny.dtd">
<svg version="1.1" baseProfile="tiny" id="Layer_1" xmlns="http://www.w3.org/2000/svg" xmlns:xlink="http://www.w3.org/1999/xlink"
	 x="0px" y="0px" width="520px" height="270px" viewBox="0 0 520 270" xml:space="preserve">
<g>
	<g>
		<path fill-rule="evenodd" fill="#CB6898" d="M249.346,145.381c-0.464-3.942-1.001-6.342-0.441-10.833
			c0.56-4.491,3.013-10.546,2.977-11.04c-0.036-0.494-0.55-2.929-5.623-3.903c-5.073-0.974-9.412-0.677-9.923,0.68
			c-0.511,1.357-1.056,4.648-2.095,7.738c-0.038,0.113-0.067,0.238-0.09,0.368c-2.351,5.996-10.698,19.378-15.729,27.069
			c-1.936-3.886-3.635-7.322-3.959-10.079c-0.464-3.942-1.001-6.342-0.441-10.833c0.56-4.491,3.013-10.546,2.977-11.04
			c-0.036-0.494-0.55-2.929-5.623-3.903c-5.073-0.974-9.412-0.677-9.923,0.68c-0.511,1.357-1.056,4.648-2.095,7.738
			c-1.039,3.09-13.321,30.478-16.538,37.571c-1.639,3.614-3.066,6.497-4.073,8.46c-0.003-0.006-0.007-0.013-0.007-0.013
			s-0.063,0.135-0.172,0.36c-0.86,1.666-1.371,2.581-1.371,2.581s0.006,0.015,0.015,0.04c-0.684,1.217-1.416,2.33-1.779,2.263
			c-0.254-0.047-0.761-3.716,0.11-8.462c1.828-9.949,7.293-25.182,7.249-25.742c-0.023-0.288,0.816-2.928-2.867-5.068
			c-3.58-2.08-4.855,0.054-5.182,0.001c-0.316-0.051-0.551,0.735-0.551,0.735s3.988-17.304-7.607-19.441
			c-5.628-1.037-12.94,2.795-18.246,7.777c-3.957,2.283-14.241,8.192-22.588,12.777c-2.951,1.621-5.962,3.278-8.817,4.851
			c-0.194-0.215-0.388-0.43-0.587-0.643c-15.235-16.255-43.4-27.752-42.205-49.605c0.434-7.944,3.196-28.863,54.118-54.237
			c41.714-20.786,75.107-15.066,80.878-2.389c8.244,18.111-17.847,51.771-61.166,56.627c-16.505,1.85-25.196-4.546-27.358-6.929
			c-2.276-2.508-2.615-2.621-3.465-2.15c-1.384,0.767-0.507,2.981,0,4.301c1.294,3.366,6.601,9.335,15.65,12.305
			c7.96,2.612,27.338,4.047,50.773-5.018c26.247-10.153,46.742-38.396,40.723-62.003c-6.122-24.01-45.933-31.903-83.611-18.517
			c-22.424,7.966-46.699,20.47-64.153,36.795C55.778,74.66,52.469,91.556,53.833,98.615c4.845,25.083,39.418,41.418,53.262,53.523
			c-0.684,0.377-1.325,0.731-1.908,1.053c-6.943,3.434-33.294,17.225-39.886,31.797c-7.477,16.529,1.191,28.389,6.929,29.986
			c17.78,4.947,36.025-3.952,45.83-18.576c9.803-14.622,8.606-33.66,4.107-42.351c-0.056-0.108-0.118-0.214-0.175-0.321
			c1.792-1.061,3.62-2.139,5.432-3.203c3.84-2.254,7.602-4.345,10.783-6.067c-2.057,4.516-3.699,10.045-4.339,18.567
			c-0.696,9.255,1.73,22.321,7.497,27.664c2.114,1.958,4.505,2.98,6.064,3.268c5.404,0.996,7.869-3.421,10.584-8.682
			c3.33-6.453,6.284-14.133,6.284-14.133s-3.708,21.537,6.395,23.399c3.681,0.678,7.385-3.811,9.034-6.145
			c0.005,0.03,0.007,0.046,0.007,0.046s0.096-0.154,0.284-0.465c0.382-0.562,0.598-0.925,0.598-0.925s0.007-0.04,0.019-0.111
			c1.48-2.511,4.762-8.253,9.683-17.813c6.359-12.351,12.459-28.168,12.459-28.168s0.567,4.246,2.426,11.438
			c1.156,4.476,3.826,8.996,5.81,13.276c-2.099,2.671-4.477,5.613-6.174,7.491c-5.018,5.552-11.233,10.562-12.034,12.55
			c-0.943,2.341-0.72,4.233,1.102,6.057c1.331,1.332,3.701,1.938,6.174,2.213c4.51,0.502,7.683-0.125,9.249-0.575
			c2.441-0.485,5.283-1.432,7.95-3.065c4.924-3.014,7.893-8.078,7.607-15.562c-0.149-3.895-1.276-7.71-2.738-11.32
			c0.267-0.362,0.534-0.726,0.803-1.103c6.181-8.653,12.391-18.032,14.665-21.494c0.027,0.06,0.042,0.095,0.042,0.095
			s0.567,4.246,2.426,11.438c1.955,7.566,8.319,15.259,8.22,21.705c-0.186,12.058-9.503,15.182-11.929,15.668
			c-4.643,0.929-5.004,3.143-2.031,4.181c2.107,0.735,10.823,0.736,17.818-3.607c4.904-3.045,7.893-8.078,7.607-15.562
			C259.326,163.131,250.146,152.187,249.346,145.381z M104.486,192.634c-7.855,8.569-18.829,11.808-23.535,9.079
			c-5.081-2.946-3.069-15.562,6.571-24.655c5.877-5.544,13.464-10.649,18.496-13.793c1.144-0.689,2.822-1.698,4.862-2.92
			c0.343-0.196,0.536-0.304,0.536-0.304l-0.008-0.013c0.395-0.236,0.799-0.478,1.217-0.728
			C116.131,172.246,112.731,183.64,104.486,192.634z M159.556,157.602c-2.525,6.204-7.809,22.294-11.025,20.786
			c-2.761-1.294-3.726-14.574,0.166-26.623c1.959-6.064,6.5-12.972,8.958-15.499c3.956-4.067,8.313-4.832,9.371-2.693
			C168.375,136.3,161.139,153.713,159.556,157.602z M203.579,187.124c-1.07,0.409-2.051,0.608-2.507,0.231
			c-0.335-0.278,0.441-0.934,0.441-0.934s5.458-5.356,7.607-7.857c1.284-1.494,2.728-3.03,4.293-4.72
			c0.002,0.085,0.007,0.171,0.007,0.256C213.404,181.719,206.607,185.613,203.579,187.124z"/>
		<path fill-rule="evenodd" fill="#CB6898" d="M443.018,29.313c10.672,1.657,14.313,5.928,14.838,11.331
			c1.007,10.369-10.35,20.095-19.849,22.001c-2.383,0.478-3.648,0.206-3.595,1.141c0.021,0.368,0.135,0.777,0.771,1.121
			c1.226,0.663,6.519,0.266,7.247,0.233c8.303-0.375,34.434-8.034,32.35-26.887c-1.793-16.223-21.757-26.082-47.498-19.919
			c-64.775,15.508-85.896,151.243-85.896,151.243s-3.01-18.768-3.823-26.043c-0.897-8.026-2.414-26.182-2.414-26.182
			s-0.503-1.76-5.306-1.925c-5.318-0.183-5.862,1.362-5.868,1.431c0,0-4.961,10.457-10.456,20.016
			c-6.016,10.465-16.516,26.166-16.516,26.166s19.048-79.198,11.355-99.058c-7.478-19.303-24.486-22.973-33.345-23.75
			c-17.214-1.511-37.429,5.977-43.212,20.873c-8.649,22.275,12.074,33.335,21.017,34.867c11.842,2.029,24.373,0.627,25.499-2.705
			c0.574-1.697-3.202-1.258-6.281-1.63c-4.261-0.515-29.417-2.244-25.095-24.964c1.562-8.213,11.185-16.729,26.483-16.508
			c23.504,0.341,26.849,22.694,24.382,41.569c-1.814,13.882-19.632,100.443-19.632,100.443s0.382,1.994,6.865,2.348
			c3.831,0.209,5.434-1.106,5.712-1.457c0.594-0.75,6.467-8.401,19.466-29.608c7.294-11.9,15.758-29.602,15.758-29.602
			s1.118,14.096,2.15,25.566c1.297,14.413,4.42,31.658,4.42,31.658s1.687,1.686,7.114,1.952c6.846,0.336,8.242-1.232,8.242-1.232
			S377.499,19.139,443.018,29.313z"/>
		<path fill-rule="evenodd" fill="#CB6898" d="M476.111,119.604c-5.073-0.974-9.412-0.677-9.923,0.68
			c-0.412,1.096-0.847,3.45-1.546,5.943l-0.087-0.016c0,0-0.134,0.564-0.383,1.568c-0.026,0.081-0.052,0.162-0.079,0.243
			l0.016,0.011c-2.431,9.748-14.399,55.402-25.359,55.402c-12.269,0-0.393-38.15,2.27-48.861c1.092-4.392,3.715-10.572,3.679-11.066
			c-0.036-0.494-0.55-2.929-5.623-3.903c-5.073-0.974-9.412-0.677-9.923,0.68c-0.511,1.357-1.056,4.648-2.095,7.738
			c-1.039,3.09-13.321,30.478-16.538,37.571c-1.639,3.614-3.066,6.497-4.073,8.46c-0.003-0.006-0.007-0.013-0.007-0.013
			s-0.063,0.135-0.172,0.36c-0.86,1.666-1.372,2.581-1.372,2.581s0.006,0.015,0.015,0.04c-0.684,1.217-1.416,2.33-1.779,2.263
			c-0.254-0.047-0.761-3.716,0.11-8.462c1.828-9.949,7.293-25.182,7.249-25.742c-0.023-0.288,0.816-2.928-2.867-5.068
			c-3.58-2.08-4.855,0.054-5.182,0.001c-0.316-0.051-0.551,0.735-0.551,0.735s3.988-17.304-7.607-19.441
			c-7.921-1.46-19.182,6.723-23.484,14.189c-4.054,7.038-8.13,12.839-9.234,27.527c-0.696,9.255,1.73,22.321,7.497,27.664
			c2.114,1.958,4.505,2.98,6.064,3.268c5.404,0.996,7.869-3.421,10.584-8.682c3.33-6.453,6.284-14.133,6.284-14.133
			s-3.708,21.537,6.395,23.399c3.681,0.678,7.385-3.811,9.034-6.145c0.005,0.03,0.007,0.046,0.007,0.046s0.096-0.154,0.284-0.465
			c0.382-0.562,0.598-0.925,0.598-0.925s0.007-0.04,0.019-0.111c1.48-2.511,4.761-8.253,9.683-17.813
			c1.488-2.89,2.96-5.968,4.344-8.99c-2.205,8.834-4.054,21.511,0.376,29.948c3.994,7.607,16.73,3.746,16.73,3.746
			s-0.018-0.023-0.045-0.055c5.323-1.695,7.094-5.082,7.094-5.082s-25.822,77.732-59.852,54.476
			c-7.923-5.415,0.141-27.302,6.332-32.017c1.262-0.961,0.046-2.611-2.031-3.106c-1.715-0.409-3.737,0.243-4.659,0.836
			c-14.189,9.128-23.7,40.202,5.018,48.503c47.012,13.589,69.464-64.317,79.324-97.325c3.337-11.173,6.278-20.976,7.925-26.459
			c1.537-4.378,3.189-9.716,3.162-10.092C481.698,123.014,481.183,120.579,476.111,119.604z M387.257,157.602
			c-2.525,6.204-7.809,22.294-11.025,20.786c-2.761-1.294-3.726-14.574,0.166-26.623c1.958-6.064,6.5-12.972,8.958-15.499
			c3.956-4.067,8.313-4.832,9.372-2.693C396.076,136.3,388.84,153.713,387.257,157.602z"/>
	</g>
	<g>
		<path fill="#CB6898" d="M11.406,60.866c0.096,0,0.128-0.064,0.16-0.128l2.943-17.503c-2.688,0-3.456,0-4.384,0.096
			c-0.607,0.064-0.768,0.256-0.896,0.608l-0.928,3.072c-0.513,0-1.12-0.064-1.601-0.128c0.353-1.76,0.704-3.52,1.088-5.28
			c0.736,0,1.76,0.032,2.977,0.032c0.703,0,4.383,0,5.343,0s4.672,0,5.376,0c1.28-0.032,1.984-0.032,2.656-0.064
			c-0.225,1.76-0.448,3.552-0.704,5.312c-0.48,0.032-1.024,0.096-1.568,0.128l0.064-3.104c0-0.352-0.064-0.576-0.672-0.608
			c-1.088-0.064-1.632-0.064-4.32-0.064l-3.039,17.631l3.071,0.096c-0.063,0.448-0.16,1.024-0.288,1.504
			c-1.184,0-2.752-0.032-4.063-0.032s-2.72,0.032-4,0.032c0.064-0.512,0.16-1.024,0.256-1.504L11.406,60.866z"/>
		<path fill="#CB6898" d="M26.093,42.339c-0.032-0.448-0.063-0.896-0.063-1.312c2.304-0.416,4.447-0.992,4.671-0.992
			c0.192,0,0.673,0.384,0.864,0.704c-0.479,1.92-2.271,8.959-3.04,11.967l0.192,0.096c2.88-3.296,5.248-4.096,6.399-4.127
			c0.672,0.096,1.664,0.64,2.144,1.664c0.129,0.288,0.192,0.64,0.192,0.992c0,1.408-1.088,5.439-2.56,9.599
			c-0.064,0.096,0,0.192,0.128,0.192c0.352,0,1.248-0.16,2.239-0.416c0.097,0.448,0.16,0.896,0.225,1.344
			c-1.312,0.448-3.2,0.672-4.224,0.672c-0.16,0-0.736-0.544-0.832-0.96c0.576-1.664,1.6-4.928,2.048-6.656
			c0.224-0.832,0.607-2.335,0.607-3.167c0-0.608-0.319-1.152-1.023-1.152c-1.952,0-5.6,3.392-6.08,5.248
			c-0.352,1.248-1.312,5.184-1.6,6.399c-0.735,0-1.504,0-2.239,0c0.703-2.912,3.839-16.127,4.799-20.287L26.093,42.339z"/>
		<path fill="#CB6898" d="M43.118,51.203c1.6-1.824,3.136-2.528,4.799-2.528c2.272,0,3.456,1.792,3.488,3.392
			c-0.16,1.056-0.832,2.4-1.76,2.912c-1.76,0.928-3.968,1.216-6.752,1.216c-0.224,0.768-0.416,1.856-0.416,2.464
			c0,1.504,0.8,2.368,2.176,2.368c1.28,0,3.296-0.704,5.056-1.696c0.192,0.416,0.353,0.832,0.513,1.248
			c-1.824,1.12-4.192,2.176-6.4,2.176c-1.695,0-3.743-1.28-3.743-3.775C40.078,57.026,40.973,53.602,43.118,51.203z M44.781,51.586
			c-0.512,0.704-1.119,1.664-1.567,3.232c1.728,0.032,3.392-0.224,4.544-0.8c0.735-0.352,1.312-0.864,1.312-1.76
			c0-1.024-0.544-2.048-1.792-2.048C46.253,50.21,45.453,50.754,44.781,51.586z"/>
	</g>
	<g>
		<path fill="#CB6898" d="M498.05,119.61v-5.951c-0.832,0-1.151,0-1.504,0.096l-0.224,1.6c-0.384,0-0.704-0.032-1.056-0.064
			c0.031-0.992,0.063-1.824,0.096-2.656c1.184,0,2.304,0,3.552,0c1.184,0,2.24,0,3.328,0c0.031,0.8,0.063,1.664,0.096,2.656
			c-0.353,0.032-0.704,0.032-1.088,0.064l-0.225-1.6c-0.319-0.096-0.831-0.096-1.504-0.096v5.951l1.28,0.032
			c0,0.384,0,0.704-0.032,1.024c-0.544,0-1.184,0-1.888,0s-1.376,0-1.983,0c0-0.32-0.032-0.672,0-1.024L498.05,119.61z
			 M504.13,119.61c0.032-1.888,0.032-4.16,0.032-5.951h-1.057c0-0.352,0-0.736,0-1.024c1.024,0,2.08,0,3.04,0
			c0.576,1.76,1.28,4.063,1.888,5.855h0.16c0.512-1.6,1.536-4.608,1.888-5.855c0.96,0,1.92,0,2.912,0c0,0.288,0,0.64-0.032,1.024
			h-1.056c0,1.92,0,4.096,0,5.983h1.12c0,0.384,0,0.736,0,1.024c-0.544,0-1.12,0-1.761,0c-0.544,0-0.991,0-1.407,0
			c0-0.288,0-0.64,0-1.024l0.768-0.032c0.064-1.664,0.064-3.52,0.064-5.055h-0.16c-0.832,2.592-1.504,4.352-2.016,5.728
			c-0.353,0.032-0.544,0.032-1.057,0.032c-0.512-1.44-1.216-3.456-1.951-5.888h-0.192c0.032,1.568,0.032,3.552,0.032,5.216h0.8
			c0,0.352,0,0.704-0.032,1.024c-0.384,0-0.896,0-1.407,0c-0.576,0-1.089,0-1.633,0c0-0.288,0-0.64,0.032-1.024L504.13,119.61z"/>
	</g>
</g>
<g>
</g>
<g>
</g>
<g>
</g>
<g>
</g>
<g>
</g>
<g>
</g>
<g>
</g>
<g>
</g>
<g>
</g>
<g>
</g>
<g>
</g>
<g>
</g>
<g>
</g>
<g>
</g>
<g>
</g>
</svg>
