<?xml version="1.0" encoding="utf-8"?>
<!-- Generator: Adobe Illustrator 17.0.0, SVG Export Plug-In . SVG Version: 6.00 Build 0)  -->
<!DOCTYPE svg PUBLIC "-//W3C//DTD SVG 1.1 Tiny//EN" "http://www.w3.org/Graphics/SVG/1.1/DTD/svg11-tiny.dtd">
<svg version="1.1" baseProfile="tiny" id="Layer_1" xmlns="http://www.w3.org/2000/svg" xmlns:xlink="http://www.w3.org/1999/xlink"
	 x="0px" y="0px" width="219px" height="90px" viewBox="0 0 219 90" xml:space="preserve">
<path fill="#939399" d="M108.912,48.415c-0.168-1.431-0.363-2.301-0.16-3.931c0.203-1.63,1.093-3.827,1.08-4.006
	c-0.013-0.179-0.2-1.063-2.041-1.417c-1.841-0.354-3.416-0.246-3.601,0.247c-0.185,0.493-0.383,1.687-0.76,2.808
	c-0.014,0.041-0.024,0.086-0.033,0.134c-0.853,2.176-3.882,7.032-5.708,9.823c-0.703-1.41-1.319-2.657-1.437-3.658
	c-0.168-1.431-0.363-2.301-0.16-3.931c0.203-1.63,1.093-3.827,1.08-4.006c-0.013-0.179-0.2-1.063-2.041-1.417
	c-1.841-0.354-3.416-0.246-3.601,0.247c-0.185,0.493-0.383,1.687-0.76,2.808c-0.377,1.121-4.834,11.06-6.002,13.634
	c-0.595,1.312-1.112,2.358-1.478,3.07c-0.001-0.002-0.002-0.005-0.002-0.005s-0.023,0.049-0.062,0.131
	c-0.312,0.605-0.498,0.937-0.498,0.937s0.002,0.005,0.005,0.015c-0.248,0.442-0.514,0.845-0.646,0.821
	c-0.092-0.017-0.276-1.348,0.04-3.071c0.663-3.61,2.647-9.138,2.631-9.342c-0.008-0.104,0.296-1.063-1.04-1.839
	c-1.299-0.755-1.762,0.02-1.88,0c-0.115-0.019-0.2,0.267-0.2,0.267s1.447-6.28-2.761-7.055c-2.042-0.376-4.696,1.014-6.621,2.822
	c-1.436,0.828-5.168,2.973-8.197,4.637c-1.071,0.588-2.163,1.19-3.2,1.76c-0.071-0.078-0.141-0.156-0.213-0.233
	c-5.529-5.899-15.75-10.071-15.316-18.001c0.158-2.883,1.16-10.474,19.639-19.683c15.138-7.543,27.256-5.467,29.351-0.867
	c2.992,6.572-6.477,18.788-22.197,20.55c-5.99,0.671-9.144-1.65-9.928-2.515c-0.826-0.91-0.949-0.951-1.257-0.78
	c-0.502,0.278-0.184,1.082,0,1.561c0.469,1.222,2.395,3.388,5.679,4.465c2.889,0.948,9.921,1.469,18.425-1.821
	c9.525-3.684,16.963-13.934,14.778-22.501C97.6,0.36,83.152-2.504,69.479,2.354c-8.138,2.891-16.947,7.428-23.281,13.353
	c-7.531,7.044-8.732,13.176-8.237,15.737c1.758,9.103,14.305,15.03,19.329,19.423c-0.248,0.137-0.481,0.265-0.692,0.382
	c-2.52,1.246-12.082,6.251-14.475,11.539c-2.714,5.998,0.432,10.302,2.515,10.882c6.452,1.795,13.073-1.434,16.632-6.741
	c3.558-5.306,3.123-12.215,1.49-15.369c-0.02-0.039-0.043-0.078-0.064-0.116c0.65-0.385,1.314-0.776,1.971-1.162
	c1.393-0.818,2.759-1.577,3.913-2.202c-0.746,1.639-1.342,3.645-1.575,6.738c-0.252,3.358,0.628,8.1,2.721,10.039
	c0.767,0.711,1.635,1.082,2.201,1.186c1.961,0.361,2.856-1.242,3.841-3.151c1.208-2.342,2.281-5.129,2.281-5.129
	s-1.346,7.816,2.321,8.491c1.336,0.246,2.68-1.383,3.278-2.23c0.002,0.011,0.003,0.017,0.003,0.017s0.035-0.056,0.103-0.169
	c0.139-0.204,0.217-0.336,0.217-0.336s0.003-0.015,0.007-0.04c0.537-0.911,1.728-2.995,3.514-6.464
	c2.308-4.482,4.521-10.222,4.521-10.222s0.206,1.541,0.88,4.151c0.42,1.624,1.388,3.264,2.109,4.818
	c-0.762,0.969-1.625,2.037-2.241,2.718c-1.821,2.015-4.076,3.833-4.367,4.554c-0.342,0.849-0.261,1.536,0.4,2.198
	c0.483,0.484,1.343,0.703,2.241,0.803c1.637,0.182,2.788-0.045,3.356-0.209c0.886-0.176,1.917-0.52,2.885-1.112
	c1.787-1.094,2.865-2.932,2.761-5.647c-0.054-1.414-0.463-2.798-0.994-4.108c0.097-0.131,0.194-0.264,0.291-0.4
	c2.243-3.14,4.497-6.544,5.322-7.8c0.01,0.022,0.015,0.034,0.015,0.034s0.206,1.541,0.88,4.151c0.709,2.746,3.019,5.537,2.983,7.877
	c-0.067,4.376-3.448,5.51-4.329,5.686c-1.685,0.337-1.816,1.141-0.737,1.517c0.764,0.267,3.928,0.267,6.466-1.309
	c1.78-1.105,2.864-2.932,2.761-5.647C112.534,54.857,109.203,50.885,108.912,48.415z M56.343,65.564
	c-2.851,3.11-6.833,4.285-8.541,3.295c-1.844-1.069-1.114-5.647,2.384-8.947c2.133-2.012,4.886-3.865,6.712-5.005
	c0.415-0.25,1.024-0.616,1.764-1.06c0.124-0.071,0.194-0.11,0.194-0.11l-0.003-0.005c0.143-0.086,0.29-0.174,0.442-0.264
	C60.569,58.165,59.335,62.3,56.343,65.564z M76.328,52.851c-0.916,2.251-2.834,8.09-4.001,7.543c-1.002-0.47-1.352-5.289,0.06-9.661
	c0.711-2.201,2.359-4.708,3.251-5.624c1.436-1.476,3.017-1.754,3.401-0.977C79.528,45.12,76.902,51.439,76.328,52.851z
	 M92.303,63.564c-0.388,0.148-0.744,0.221-0.91,0.084c-0.122-0.101,0.16-0.339,0.16-0.339s1.981-1.944,2.761-2.851
	c0.466-0.542,0.99-1.099,1.558-1.713c0.001,0.031,0.003,0.062,0.003,0.093C95.869,61.603,93.402,63.016,92.303,63.564z"/>
<path fill="#939399" d="M179.196,6.295c3.873,0.601,5.194,2.151,5.385,4.112c0.365,3.763-3.756,7.293-7.203,7.984
	c-0.865,0.174-1.324,0.075-1.305,0.414c0.008,0.134,0.049,0.282,0.28,0.407c0.445,0.241,2.366,0.096,2.63,0.085
	c3.013-0.136,12.496-2.916,11.74-9.757c-0.651-5.887-7.896-9.465-17.237-7.229c-23.507,5.628-31.171,54.886-31.171,54.886
	s-1.092-6.811-1.387-9.451c-0.325-2.913-0.876-9.501-0.876-9.501s-0.183-0.639-1.925-0.699c-1.93-0.067-2.127,0.494-2.13,0.519
	c0,0-1.8,3.795-3.795,7.264c-2.183,3.798-5.994,9.496-5.994,9.496s6.912-28.741,4.121-35.948c-2.714-7.005-8.886-8.337-12.101-8.619
	c-6.247-0.548-13.583,2.169-15.682,7.575c-3.139,8.084,4.382,12.097,7.627,12.653c4.297,0.736,8.845,0.228,9.254-0.982
	c0.208-0.616-1.162-0.457-2.279-0.592c-1.546-0.187-10.675-0.814-9.107-9.06c0.567-2.981,4.059-6.071,9.611-5.991
	c8.53,0.124,9.743,8.236,8.848,15.085c-0.658,5.038-7.125,36.451-7.125,36.451s0.139,0.724,2.491,0.852
	c1.39,0.076,1.972-0.401,2.073-0.529c0.215-0.272,2.347-3.049,7.064-10.745c2.647-4.318,5.719-10.742,5.719-10.742
	s0.406,5.116,0.78,9.278C137.972,58.742,139.105,65,139.105,65s0.612,0.612,2.582,0.708c2.485,0.122,2.991-0.447,2.991-0.447
	S155.419,2.602,179.196,6.295z"/>
<path fill="#939399" d="M191.205,39.061c-1.841-0.354-3.416-0.246-3.601,0.247c-0.15,0.398-0.307,1.252-0.561,2.157l-0.032-0.006
	c0,0-0.049,0.205-0.139,0.569c-0.01,0.029-0.019,0.059-0.029,0.088l0.006,0.004c-0.882,3.538-5.226,20.105-9.203,20.105
	c-4.452,0-0.143-13.845,0.824-17.732c0.396-1.594,1.348-3.837,1.335-4.016c-0.013-0.179-0.2-1.063-2.041-1.417
	s-3.416-0.246-3.601,0.247c-0.185,0.493-0.383,1.687-0.76,2.808c-0.377,1.121-4.834,11.06-6.002,13.634
	c-0.595,1.312-1.112,2.358-1.478,3.07c-0.001-0.002-0.002-0.005-0.002-0.005s-0.023,0.049-0.062,0.131
	c-0.312,0.605-0.498,0.937-0.498,0.937s0.002,0.005,0.005,0.015c-0.248,0.442-0.514,0.845-0.646,0.821
	c-0.092-0.017-0.276-1.348,0.04-3.071c0.663-3.61,2.647-9.138,2.631-9.342c-0.008-0.104,0.296-1.063-1.04-1.839
	c-1.299-0.755-1.762,0.02-1.881,0c-0.115-0.019-0.2,0.267-0.2,0.267s1.447-6.28-2.761-7.055c-2.874-0.53-6.961,2.44-8.522,5.149
	c-1.471,2.554-2.95,4.659-3.351,9.989c-0.252,3.358,0.628,8.1,2.721,10.039c0.767,0.711,1.635,1.082,2.201,1.186
	c1.961,0.361,2.856-1.242,3.841-3.151c1.208-2.342,2.281-5.129,2.281-5.129s-1.346,7.816,2.321,8.491
	c1.336,0.246,2.68-1.383,3.278-2.23c0.002,0.011,0.003,0.017,0.003,0.017s0.035-0.056,0.103-0.169
	c0.139-0.204,0.217-0.336,0.217-0.336s0.003-0.015,0.007-0.04c0.537-0.911,1.728-2.995,3.514-6.464
	c0.54-1.049,1.074-2.166,1.576-3.262c-0.8,3.206-1.471,7.806,0.136,10.868c1.45,2.761,6.071,1.359,6.071,1.359
	s-0.007-0.008-0.016-0.02c1.932-0.615,2.574-1.844,2.574-1.844s-9.371,28.209-21.72,19.769c-2.875-1.965,0.051-9.908,2.298-11.619
	c0.458-0.349,0.017-0.947-0.737-1.127c-0.622-0.148-1.356,0.088-1.691,0.303c-5.149,3.312-8.601,14.589,1.821,17.602
	c17.061,4.931,25.209-23.34,28.787-35.319c1.211-4.055,2.278-7.612,2.876-9.602c0.558-1.589,1.157-3.526,1.148-3.662
	C193.232,40.299,193.046,39.415,191.205,39.061z M158.96,52.851c-0.916,2.251-2.834,8.09-4.001,7.543
	c-1.002-0.47-1.352-5.289,0.06-9.661c0.711-2.201,2.359-4.708,3.251-5.624c1.436-1.476,3.017-1.754,3.401-0.977
	C162.16,45.12,159.535,51.439,158.96,52.851z"/>
<path fill="#939399" d="M3.222,40.335c0.066,0,0.088-0.044,0.11-0.088l2.016-11.988c-1.841,0-2.367,0-3.003,0.066
	c-0.416,0.044-0.526,0.175-0.613,0.416l-0.635,2.104c-0.351,0-0.767-0.044-1.096-0.088c0.241-1.205,0.482-2.411,0.745-3.616
	c0.504,0,1.205,0.022,2.039,0.022c0.482,0,3.002,0,3.659,0s3.2,0,3.682,0c0.877-0.022,1.359-0.022,1.819-0.044
	c-0.154,1.205-0.307,2.433-0.482,3.638c-0.329,0.022-0.702,0.066-1.074,0.088l0.044-2.126c0-0.241-0.044-0.394-0.46-0.416
	c-0.745-0.044-1.118-0.044-2.959-0.044L4.932,40.335l2.104,0.066c-0.043,0.307-0.11,0.701-0.197,1.03
	c-0.811,0-1.885-0.022-2.783-0.022s-1.863,0.022-2.74,0.022c0.044-0.351,0.11-0.701,0.175-1.03L3.222,40.335z"/>
<path fill="#939399" d="M13.282,27.645c-0.022-0.307-0.043-0.613-0.043-0.898c1.578-0.285,3.046-0.68,3.199-0.68
	c0.132,0,0.461,0.263,0.592,0.482c-0.328,1.315-1.556,6.137-2.082,8.197l0.132,0.066c1.973-2.257,3.595-2.805,4.383-2.827
	c0.46,0.066,1.14,0.438,1.468,1.139c0.088,0.197,0.132,0.438,0.132,0.68c0,0.964-0.745,3.726-1.753,6.575
	c-0.044,0.066,0,0.131,0.088,0.131c0.241,0,0.855-0.109,1.534-0.285c0.066,0.307,0.11,0.614,0.154,0.921
	c-0.899,0.307-2.192,0.46-2.893,0.46c-0.11,0-0.504-0.373-0.57-0.658c0.395-1.14,1.096-3.375,1.403-4.559
	c0.153-0.57,0.416-1.6,0.416-2.17c0-0.416-0.219-0.789-0.701-0.789c-1.337,0-3.835,2.323-4.164,3.594
	c-0.241,0.854-0.898,3.55-1.096,4.383c-0.504,0-1.03,0-1.534,0c0.482-1.994,2.629-11.046,3.287-13.895L13.282,27.645z"/>
<path fill="#939399" d="M24.943,33.716c1.096-1.249,2.148-1.731,3.287-1.731c1.556,0,2.367,1.227,2.389,2.323
	c-0.11,0.723-0.57,1.644-1.205,1.994c-1.205,0.636-2.718,0.833-4.625,0.833c-0.153,0.526-0.285,1.271-0.285,1.688
	c0,1.03,0.548,1.622,1.49,1.622c0.877,0,2.257-0.482,3.463-1.162c0.132,0.285,0.241,0.57,0.351,0.855
	c-1.249,0.767-2.872,1.49-4.384,1.49c-1.161,0-2.564-0.877-2.564-2.586C22.86,37.705,23.474,35.36,24.943,33.716z M26.082,33.979
	c-0.35,0.482-0.767,1.14-1.074,2.214c1.183,0.022,2.323-0.154,3.112-0.548c0.504-0.241,0.898-0.592,0.898-1.205
	c0-0.701-0.373-1.403-1.227-1.403C27.091,33.037,26.542,33.409,26.082,33.979z"/>
<path fill="#939399" d="M203.821,45.588v-5.951c-0.832,0-1.151,0-1.504,0.096l-0.224,1.6c-0.384,0-0.704-0.032-1.056-0.064
	c0.031-0.992,0.063-1.824,0.096-2.656c1.184,0,2.304,0,3.552,0c1.184,0,2.24,0,3.328,0c0.031,0.8,0.063,1.664,0.096,2.656
	c-0.353,0.032-0.704,0.032-1.088,0.064l-0.225-1.6c-0.319-0.096-0.831-0.096-1.504-0.096v5.951l1.28,0.032
	c0,0.384,0,0.704-0.032,1.024c-0.544,0-1.184,0-1.888,0s-1.376,0-1.983,0c0-0.32-0.032-0.672,0-1.024L203.821,45.588z
	 M209.901,45.588c0.032-1.888,0.032-4.16,0.032-5.951h-1.057c0-0.352,0-0.736,0-1.024c1.024,0,2.08,0,3.04,0
	c0.576,1.76,1.28,4.063,1.888,5.855h0.16c0.512-1.6,1.536-4.608,1.888-5.855c0.96,0,1.92,0,2.912,0c0,0.288,0,0.64-0.032,1.024
	h-1.056c0,1.92,0,4.096,0,5.983h1.12c0,0.384,0,0.736,0,1.024c-0.544,0-1.12,0-1.761,0c-0.544,0-0.991,0-1.407,0
	c0-0.288,0-0.64,0-1.024l0.768-0.032c0.064-1.664,0.064-3.52,0.064-5.055h-0.16c-0.832,2.592-1.504,4.352-2.016,5.728
	c-0.353,0.032-0.544,0.032-1.057,0.032c-0.512-1.44-1.216-3.456-1.951-5.888h-0.192c0.032,1.568,0.032,3.552,0.032,5.216h0.8
	c0,0.352,0,0.704-0.032,1.024c-0.384,0-0.896,0-1.407,0c-0.576,0-1.089,0-1.633,0c0-0.288,0-0.64,0.032-1.024L209.901,45.588z"/>
<g>
</g>
<g>
</g>
<g>
</g>
<g>
</g>
<g>
</g>
<g>
</g>
<g>
</g>
<g>
</g>
<g>
</g>
<g>
</g>
<g>
</g>
<g>
</g>
<g>
</g>
<g>
</g>
<g>
</g>
</svg>
