<?xml version="1.0" encoding="utf-8"?>
<!-- Generator: Adobe Illustrator 17.0.0, SVG Export Plug-In . SVG Version: 6.00 Build 0)  -->
<!DOCTYPE svg PUBLIC "-//W3C//DTD SVG 1.1 Tiny//EN" "http://www.w3.org/Graphics/SVG/1.1/DTD/svg11-tiny.dtd">
<svg version="1.1" baseProfile="tiny" id="Layer_1" xmlns="http://www.w3.org/2000/svg" xmlns:xlink="http://www.w3.org/1999/xlink"
	 x="0px" y="0px" width="506px" height="247px" viewBox="0 0 506 247" xml:space="preserve">
<g>
	<g>
		<path fill-rule="evenodd" fill="#CB6898" d="M242.489,133.417c-0.463-3.942-1-6.342-0.441-10.834
			c0.56-4.491,3.011-10.546,2.975-11.04c-0.036-0.494-0.55-2.929-5.619-3.904s-9.406-0.677-9.916,0.68
			c-0.51,1.357-1.055,4.648-2.093,7.738c-0.038,0.113-0.067,0.238-0.09,0.368c-2.349,5.996-10.692,19.378-15.719,27.07
			c-1.935-3.886-3.633-7.322-3.957-10.079c-0.463-3.942-1-6.342-0.441-10.834c0.559-4.491,3.011-10.546,2.975-11.04
			c-0.036-0.494-0.55-2.929-5.619-3.904c-5.07-0.975-9.406-0.677-9.916,0.68c-0.51,1.357-1.055,4.648-2.094,7.738
			c-1.039,3.09-13.313,30.479-16.527,37.572c-1.638,3.615-3.064,6.497-4.07,8.461c-0.003-0.006-0.007-0.013-0.007-0.013
			s-0.063,0.135-0.172,0.36c-0.859,1.666-1.371,2.581-1.371,2.581s0.006,0.015,0.015,0.04c-0.683,1.217-1.415,2.33-1.778,2.263
			c-0.254-0.047-0.761-3.716,0.11-8.462c1.826-9.949,7.289-25.183,7.245-25.743c-0.023-0.288,0.816-2.928-2.865-5.068
			c-3.578-2.08-4.852,0.054-5.179,0.001c-0.316-0.051-0.551,0.735-0.551,0.735s3.986-17.305-7.603-19.442
			c-5.624-1.037-12.932,2.795-18.234,7.778c-3.954,2.283-14.232,8.192-22.574,12.778c-2.949,1.621-5.958,3.278-8.811,4.851
			c-0.194-0.215-0.387-0.43-0.587-0.643C94.349,117.851,66.203,106.353,67.397,84.5c0.434-7.945,3.194-28.864,54.083-54.239
			c41.687-20.787,75.059-15.067,80.826-2.389c8.239,18.111-17.836,51.773-61.127,56.629c-16.495,1.85-25.18-4.547-27.34-6.929
			c-2.274-2.508-2.613-2.621-3.462-2.15c-1.383,0.767-0.507,2.981,0,4.301c1.293,3.366,6.597,9.336,15.64,12.305
			c7.955,2.612,27.321,4.047,50.74-5.018c26.23-10.153,46.713-38.397,40.697-62.005C211.336,0.993,171.551-6.9,133.897,6.486
			c-22.409,7.967-46.669,20.47-64.112,36.797C49.045,62.695,45.738,79.59,47.101,86.65c4.842,25.084,39.393,41.419,53.228,53.525
			c-0.683,0.377-1.324,0.731-1.907,1.053c-6.939,3.434-33.273,17.226-39.86,31.798c-7.473,16.53,1.19,28.39,6.925,29.987
			c17.768,4.947,36.002-3.952,45.801-18.577c9.797-14.622,8.6-33.662,4.104-42.352c-0.056-0.108-0.118-0.214-0.175-0.321
			c1.791-1.061,3.618-2.14,5.428-3.203c3.837-2.254,7.598-4.345,10.776-6.067c-2.056,4.516-3.696,10.045-4.337,18.567
			c-0.695,9.255,1.729,22.322,7.492,27.665c2.112,1.958,4.502,2.981,6.06,3.268c5.4,0.996,7.864-3.421,10.577-8.682
			c3.328-6.453,6.28-14.134,6.28-14.134s-3.706,21.538,6.391,23.4c3.679,0.678,7.38-3.812,9.028-6.145
			c0.005,0.03,0.007,0.046,0.007,0.046s0.096-0.154,0.284-0.465c0.382-0.562,0.598-0.926,0.598-0.926s0.007-0.04,0.019-0.111
			c1.479-2.511,4.758-8.254,9.677-17.814c6.355-12.352,12.451-28.169,12.451-28.169s0.567,4.246,2.424,11.438
			c1.156,4.476,3.823,8.996,5.807,13.276c-2.098,2.671-4.474,5.614-6.171,7.491c-5.015,5.552-11.226,10.563-12.026,12.55
			c-0.942,2.341-0.72,4.233,1.102,6.057c1.331,1.333,3.699,1.938,6.17,2.213c4.507,0.502,7.678-0.125,9.243-0.575
			c2.439-0.485,5.28-1.432,7.945-3.065c4.92-3.015,7.888-8.078,7.603-15.563c-0.149-3.895-1.275-7.711-2.737-11.32
			c0.267-0.362,0.534-0.726,0.803-1.103c6.177-8.653,12.383-18.032,14.656-21.495c0.027,0.06,0.042,0.095,0.042,0.095
			s0.567,4.246,2.424,11.438c1.954,7.566,8.314,15.259,8.214,21.705c-0.186,12.059-9.497,15.183-11.921,15.668
			c-4.64,0.929-5.001,3.144-2.03,4.181c2.105,0.735,10.816,0.736,17.807-3.607c4.901-3.046,7.888-8.078,7.603-15.563
			C252.463,151.168,243.289,140.224,242.489,133.417z M97.722,180.673c-7.85,8.569-18.817,11.808-23.52,9.08
			c-5.078-2.946-3.067-15.562,6.566-24.655c5.873-5.544,13.456-10.649,18.484-13.793c1.143-0.689,2.82-1.698,4.858-2.92
			c0.342-0.196,0.536-0.304,0.536-0.304l-0.008-0.013c0.394-0.236,0.799-0.478,1.216-0.728
			C109.36,160.283,105.961,171.678,97.722,180.673z M152.757,145.64c-2.523,6.204-7.804,22.294-11.018,20.787
			c-2.759-1.294-3.723-14.575,0.165-26.624c1.957-6.065,6.496-12.973,8.952-15.499c3.954-4.067,8.308-4.832,9.365-2.693
			C161.57,124.336,154.339,141.75,152.757,145.64z M196.751,175.162c-1.07,0.409-2.05,0.608-2.505,0.231
			c-0.335-0.278,0.441-0.934,0.441-0.934s5.455-5.356,7.603-7.857c1.283-1.494,2.726-3.03,4.29-4.721
			c0.002,0.085,0.007,0.171,0.007,0.256C206.571,169.757,199.778,173.652,196.751,175.162z"/>
		<path fill-rule="evenodd" fill="#CB6898" d="M436.038,17.346c10.665,1.657,14.304,5.928,14.828,11.332
			c1.006,10.369-10.344,20.096-19.836,22.002c-2.382,0.478-3.646,0.206-3.593,1.141c0.021,0.368,0.135,0.777,0.771,1.121
			c1.225,0.663,6.515,0.266,7.242,0.233c8.298-0.375,34.412-8.035,32.329-26.888c-1.792-16.224-21.743-26.083-47.468-19.92
			c-64.734,15.508-85.841,151.248-85.841,151.248s-3.008-18.769-3.82-26.044c-0.896-8.026-2.412-26.183-2.412-26.183
			s-0.503-1.76-5.302-1.925c-5.315-0.183-5.859,1.362-5.864,1.431c0,0-4.958,10.458-10.449,20.017
			c-6.012,10.465-16.506,26.167-16.506,26.167s19.036-79.201,11.348-99.061c-7.473-19.304-24.47-22.973-33.324-23.751
			c-17.203-1.511-37.405,5.978-43.184,20.873c-8.643,22.276,12.067,33.336,21.003,34.869c11.834,2.029,24.357,0.627,25.483-2.705
			c0.573-1.697-3.2-1.258-6.277-1.63c-4.258-0.515-29.398-2.244-25.079-24.965c1.561-8.213,11.178-16.73,26.466-16.508
			c23.489,0.341,26.832,22.695,24.366,41.57c-1.813,13.882-19.62,100.446-19.62,100.446s0.382,1.994,6.861,2.348
			c3.828,0.209,5.431-1.106,5.708-1.457c0.593-0.75,6.463-8.401,19.453-29.609c7.289-11.9,15.748-29.603,15.748-29.603
			s1.118,14.097,2.149,25.566c1.296,14.414,4.417,31.659,4.417,31.659s1.686,1.686,7.11,1.952c6.842,0.336,8.237-1.232,8.237-1.232
			S370.56,7.172,436.038,17.346z"/>
		<path fill-rule="evenodd" fill="#CB6898" d="M469.109,107.64c-5.07-0.975-9.406-0.677-9.916,0.68
			c-0.412,1.096-0.846,3.451-1.545,5.943l-0.087-0.016c0,0-0.134,0.564-0.383,1.568c-0.026,0.081-0.052,0.162-0.079,0.243
			l0.016,0.011c-2.429,9.749-14.39,55.404-25.342,55.404c-12.261,0-0.393-38.152,2.268-48.863
			c1.091-4.392,3.712-10.573,3.677-11.067c-0.036-0.494-0.55-2.929-5.619-3.904s-9.406-0.677-9.916,0.68
			c-0.51,1.357-1.055,4.648-2.094,7.738c-1.039,3.09-13.313,30.479-16.527,37.572c-1.638,3.615-3.064,6.497-4.07,8.461
			c-0.003-0.006-0.007-0.013-0.007-0.013s-0.063,0.135-0.172,0.36c-0.86,1.666-1.371,2.581-1.371,2.581s0.006,0.015,0.015,0.04
			c-0.683,1.217-1.415,2.33-1.778,2.263c-0.254-0.047-0.761-3.716,0.11-8.462c1.826-9.949,7.289-25.183,7.245-25.743
			c-0.023-0.288,0.816-2.928-2.865-5.068c-3.578-2.08-4.852,0.054-5.179,0.001c-0.316-0.051-0.551,0.735-0.551,0.735
			s3.986-17.305-7.603-19.442c-7.916-1.46-19.17,6.723-23.469,14.19c-4.052,7.038-8.125,12.84-9.228,27.528
			c-0.695,9.255,1.729,22.322,7.492,27.665c2.112,1.958,4.502,2.981,6.06,3.268c5.4,0.996,7.864-3.421,10.578-8.682
			c3.328-6.453,6.28-14.134,6.28-14.134s-3.706,21.538,6.391,23.4c3.679,0.678,7.38-3.812,9.028-6.145
			c0.005,0.03,0.007,0.046,0.007,0.046s0.096-0.154,0.284-0.465c0.382-0.562,0.598-0.925,0.598-0.925s0.007-0.04,0.019-0.111
			c1.479-2.511,4.758-8.254,9.677-17.814c1.487-2.89,2.958-5.968,4.341-8.99c-2.203,8.835-4.052,21.512,0.375,29.949
			c3.992,7.608,16.719,3.746,16.719,3.746s-0.018-0.023-0.045-0.055c5.319-1.695,7.089-5.082,7.089-5.082
			s-22.552,72.226-57.428,56.134c-8.732-4.029-10.333-19.507,3.941-33.673c1.125-1.117,5.137-4.385,3.061-4.88
			c-1.714-0.409-5.291,1.045-8.646,4.014c-12.628,11.179-24.786,38.799,3.914,47.1c46.982,13.589,69.42-64.319,79.273-97.329
			c3.335-11.173,6.274-20.976,7.92-26.46c1.536-4.378,3.187-9.716,3.16-10.092C474.692,111.05,474.178,108.615,469.109,107.64z
			 M380.312,145.64c-2.523,6.204-7.804,22.294-11.018,20.787c-2.759-1.294-3.723-14.575,0.165-26.624
			c1.957-6.065,6.496-12.973,8.952-15.499c3.954-4.067,8.308-4.832,9.366-2.693C389.126,124.336,381.895,141.75,380.312,145.64z"/>
	</g>
	<g>
		<path fill="#CB6898" d="M4.701,49.229c0.096,0,0.128-0.063,0.16-0.127l2.941-17.349c-2.686,0-3.454,0-4.381,0.095
			c-0.607,0.063-0.767,0.254-0.895,0.603L1.6,35.495c-0.512,0-1.119-0.063-1.6-0.127c0.352-1.744,0.704-3.489,1.087-5.233
			c0.736,0,1.759,0.032,2.975,0.032c0.703,0,4.38,0,5.339,0s4.669,0,5.373,0c1.279-0.032,1.983-0.032,2.655-0.063
			c-0.224,1.744-0.448,3.521-0.704,5.265c-0.48,0.031-1.024,0.095-1.567,0.127l0.064-3.077c0-0.348-0.064-0.571-0.671-0.603
			c-1.087-0.063-1.631-0.063-4.318-0.063L7.196,49.229l3.069,0.095c-0.063,0.444-0.16,1.015-0.288,1.491
			c-1.183,0-2.75-0.032-4.061-0.032s-2.718,0.032-3.997,0.032c0.064-0.508,0.16-1.015,0.256-1.491L4.701,49.229z"/>
		<path fill="#CB6898" d="M19.379,30.865c-0.032-0.444-0.063-0.888-0.063-1.3c2.302-0.412,4.444-0.983,4.668-0.983
			c0.192,0,0.672,0.38,0.864,0.698c-0.479,1.903-2.27,8.881-3.038,11.862l0.192,0.095c2.878-3.267,5.245-4.06,6.395-4.091
			c0.671,0.095,1.663,0.634,2.142,1.649c0.129,0.286,0.192,0.635,0.192,0.983c0,1.395-1.087,5.392-2.558,9.515
			c-0.064,0.095,0,0.19,0.128,0.19c0.351,0,1.247-0.158,2.238-0.412c0.097,0.444,0.16,0.888,0.224,1.332
			c-1.312,0.444-3.198,0.666-4.221,0.666c-0.16,0-0.736-0.539-0.831-0.952c0.576-1.649,1.599-4.885,2.047-6.597
			c0.223-0.824,0.607-2.315,0.607-3.14c0-0.603-0.319-1.142-1.023-1.142c-1.951,0-5.596,3.362-6.076,5.202
			c-0.351,1.237-1.311,5.138-1.599,6.343c-0.735,0-1.503,0-2.238,0c0.703-2.886,3.836-15.986,4.796-20.109L19.379,30.865z"/>
		<path fill="#CB6898" d="M36.393,39.651c1.599-1.808,3.134-2.506,4.796-2.506c2.271,0,3.454,1.776,3.486,3.362
			c-0.16,1.046-0.831,2.379-1.759,2.886c-1.759,0.92-3.965,1.205-6.748,1.205c-0.223,0.761-0.416,1.84-0.416,2.442
			c0,1.491,0.799,2.347,2.174,2.347c1.279,0,3.294-0.698,5.052-1.681c0.192,0.412,0.352,0.825,0.512,1.237
			c-1.823,1.11-4.19,2.157-6.396,2.157c-1.694,0-3.741-1.269-3.741-3.742C33.355,45.423,34.25,42.029,36.393,39.651z M38.055,40.031
			c-0.511,0.698-1.118,1.649-1.566,3.204c1.726,0.031,3.389-0.222,4.541-0.793c0.735-0.349,1.311-0.856,1.311-1.744
			c0-1.015-0.544-2.03-1.791-2.03C39.526,38.667,38.726,39.206,38.055,40.031z"/>
	</g>
	<g>
		<path fill="#CB6898" d="M490.934,114.948v-5.928c-0.831,0-1.151,0-1.503,0.095l-0.224,1.594c-0.384,0-0.704-0.032-1.055-0.064
			c0.031-0.988,0.063-1.817,0.096-2.645c1.183,0,2.302,0,3.549,0c1.183,0,2.239,0,3.326,0c0.031,0.797,0.063,1.657,0.096,2.645
			c-0.352,0.032-0.704,0.032-1.087,0.064l-0.224-1.594c-0.319-0.095-0.831-0.095-1.503-0.095v5.928l1.279,0.032
			c0,0.382,0,0.701-0.032,1.02c-0.544,0-1.183,0-1.886,0s-1.375,0-1.982,0c0-0.319-0.032-0.669,0-1.02L490.934,114.948z
			 M497.011,114.948c0.032-1.88,0.032-4.143,0.032-5.928h-1.056c0-0.351,0-0.733,0-1.02c1.024,0,2.079,0,3.038,0
			c0.576,1.753,1.279,4.048,1.886,5.833h0.16c0.511-1.594,1.535-4.59,1.886-5.833c0.959,0,1.919,0,2.91,0
			c0,0.286,0,0.637-0.032,1.02h-1.055c0,1.912,0,4.08,0,5.96h1.119c0,0.382,0,0.733,0,1.02c-0.544,0-1.119,0-1.76,0
			c-0.544,0-0.991,0-1.406,0c0-0.287,0-0.638,0-1.02l0.767-0.032c0.064-1.657,0.064-3.506,0.064-5.036h-0.16
			c-0.832,2.582-1.503,4.335-2.014,5.705c-0.352,0.032-0.544,0.032-1.056,0.032c-0.511-1.434-1.215-3.442-1.95-5.865h-0.192
			c0.032,1.562,0.032,3.538,0.032,5.196h0.799c0,0.351,0,0.701-0.032,1.02c-0.384,0-0.895,0-1.406,0c-0.576,0-1.088,0-1.632,0
			c0-0.287,0-0.638,0.032-1.02L497.011,114.948z"/>
	</g>
</g>
<g>
</g>
<g>
</g>
<g>
</g>
<g>
</g>
<g>
</g>
<g>
</g>
<g>
</g>
<g>
</g>
<g>
</g>
<g>
</g>
<g>
</g>
<g>
</g>
<g>
</g>
<g>
</g>
<g>
</g>
</svg>
